<svg width="50" height="50" viewBox="0 0 50 50" fill="none" xmlns="http://www.w3.org/2000/svg">
<g id="assurance">
<path id="Vector" d="M0.2 25C0.2 11.3258 11.3258 0.2 25 0.2C38.6742 0.2 49.8 11.3258 49.8 25C49.8 38.6742 38.6742 49.8 25 49.8C11.3258 49.8 0.2 38.6742 0.2 25ZM2.29796 25C2.29796 37.5187 12.4813 47.702 25 47.702C37.5187 47.702 47.702 37.5187 47.702 25C47.702 12.4813 37.5187 2.29796 25 2.29796C12.4813 2.29796 2.29796 12.4813 2.29796 25Z" fill="black" stroke="white" stroke-width="0.4"/>
<path id="Vector_2" d="M31.6866 19.055L31.687 19.0546C32.0981 18.6436 32.756 18.6433 33.1673 19.0539C33.5694 19.4653 33.5691 20.1243 33.1579 20.5356C33.1579 20.5356 33.1579 20.5356 33.1578 20.5356L22.6872 30.9451L22.6868 30.9455C22.4803 31.152 22.2154 31.254 21.9514 31.254C21.6764 31.254 21.4119 31.1515 21.206 30.9457C21.2059 30.9457 21.2058 30.9456 21.2058 30.9455L16.8333 26.5424C16.8331 26.5423 16.833 26.5421 16.8328 26.542C16.4296 26.1297 16.4319 25.4615 16.8405 25.0614C17.2518 24.6586 17.9113 24.6586 18.3229 25.07C18.3229 25.07 18.323 25.0701 18.323 25.0701L21.8197 28.5873L21.9608 28.7291L22.1026 28.588L31.6866 19.055Z" fill="black" stroke="white" stroke-width="0.4"/>
</g>
</svg>
