<svg width="48" height="50" viewBox="0 0 48 50" fill="none" xmlns="http://www.w3.org/2000/svg">
<path id="delivery" d="M47.0204 11.0323L24.3184 0.0727417C24.1172 -0.0243286 23.8828 -0.0243286 23.6816 0.0727417L0.979578 11.0323C0.726453 11.1545 0.565613 11.4108 0.565613 11.6919V38.308C0.565613 38.589 0.726453 38.8454 0.979578 38.9676L23.6815 49.9271C23.7821 49.9757 23.8911 50 24 50C24.1089 50 24.2178 49.9757 24.3184 49.9271L47.0204 38.9676C47.2735 38.8454 47.4344 38.589 47.4344 38.308V11.692C47.4344 11.4107 47.2734 11.1546 47.0204 11.0323ZM24 1.54569L45.0173 11.6919L38.9248 14.6331C38.8862 14.6037 38.8455 14.5766 38.8008 14.555L17.9263 4.47782L24 1.54569ZM16.2722 5.30594L37.2589 15.4374L32.9605 17.5125L11.9825 7.38514L16.2722 5.30594ZM37.7499 16.8268V24.4974L33.735 26.4356V18.7651L37.7499 16.8268ZM45.9695 37.8484L24.7324 48.1006V23.1111L29.7981 20.6656C30.1624 20.4897 30.3151 20.0519 30.1392 19.6876C29.9634 19.3234 29.5256 19.1705 29.1612 19.3465L24 21.8382L21.9691 20.8577C21.6048 20.6816 21.167 20.8346 20.9911 21.1988C20.8152 21.5631 20.968 22.001 21.3322 22.1768L23.2676 23.1111V48.1006L2.03046 37.8482V12.8588L18.2023 20.6659C18.305 20.7155 18.4135 20.739 18.5202 20.739C18.7925 20.739 19.054 20.5864 19.1803 20.3248C19.3561 19.9605 19.2034 19.5226 18.8392 19.3468L2.9827 11.6919L10.2586 8.17938L32.26 18.8008C32.2632 18.8053 32.2668 18.8093 32.2701 18.8137V27.6026C32.2701 27.8547 32.3997 28.089 32.6132 28.223C32.7317 28.2974 32.867 28.335 33.0026 28.335C33.1112 28.335 33.2201 28.3109 33.321 28.2622L38.8008 25.6168C39.0539 25.4946 39.2147 25.2384 39.2147 24.9572V16.1198L45.9695 12.8589V37.8484Z" fill="black"/>
</svg>
