<svg width="49" height="50" viewBox="0 0 49 50" fill="none" xmlns="http://www.w3.org/2000/svg">
<g id="tax">
<mask id="path-1-inside-1" fill="white">
<path d="M47.1455 33.9921C48.1702 32.6851 48.6616 31.284 48.5989 29.8411C48.5362 28.2518 47.8252 27.0075 47.2397 26.2442C47.9193 24.5504 48.1807 21.8841 45.9118 19.8139C44.2493 18.2978 41.4262 17.6182 37.5157 17.8064C34.7658 17.9318 32.4655 18.4442 32.3714 18.4651H32.3609C31.8381 18.5592 31.284 18.6742 30.7194 18.7997C30.6775 18.1305 30.7926 16.468 32.0263 12.7248C33.4902 8.2706 33.4065 4.86198 31.7545 2.5826C30.0188 0.188206 27.248 0 26.4325 0C25.6483 0 24.9268 0.324132 24.4145 0.920117C23.2539 2.26892 23.3898 4.75742 23.5362 5.90757C22.156 9.60895 18.2873 18.6847 15.0146 21.2045C14.9519 21.2463 14.8996 21.2986 14.8473 21.3509C13.8854 22.3651 13.2371 23.463 12.798 24.4249C12.1811 24.0903 11.4806 23.9021 10.7277 23.9021H4.34964C1.94479 23.9021 0 25.8574 0 28.2518V45.2426C0 47.6474 1.95525 49.5922 4.34964 49.5922H10.7277C11.6583 49.5922 12.5261 49.2995 13.2371 48.7976L15.6943 49.0903C16.0707 49.1426 22.7624 49.9895 29.632 49.8536C30.8762 49.9477 32.0473 50 33.1347 50C35.0063 50 36.6374 49.8536 37.9967 49.5609C41.1962 48.8812 43.3814 47.522 44.4897 45.5249C45.3367 43.9983 45.3367 42.4822 45.2008 41.5203C47.2815 39.6382 47.6474 37.5575 47.5742 36.0937C47.5324 35.2468 47.3442 34.5253 47.1455 33.9921ZM4.34964 46.7691C3.50272 46.7691 2.82309 46.079 2.82309 45.2426V28.2413C2.82309 27.3944 3.51317 26.7148 4.34964 26.7148H10.7277C11.5747 26.7148 12.2543 27.4049 12.2543 28.2413V45.2321C12.2543 46.079 11.5642 46.7587 10.7277 46.7587H4.34964V46.7691ZM44.4688 32.7687C44.0297 33.2288 43.946 33.9293 44.2806 34.473C44.2806 34.4835 44.7093 35.2154 44.7616 36.2192C44.8348 37.5889 44.1761 38.8018 42.7959 39.8369C42.3045 40.2133 42.1058 40.8616 42.3149 41.4471C42.3149 41.4575 42.7645 42.8377 42.0326 44.1447C41.3321 45.3994 39.7742 46.2986 37.4111 46.8005C35.5186 47.2083 32.9465 47.2815 29.7888 47.0305C29.747 47.0305 29.6947 47.0305 29.6424 47.0305C22.9193 47.1769 16.123 46.2986 16.0498 46.2882H16.0393L14.9833 46.1627C15.046 45.8699 15.0774 45.5563 15.0774 45.2426V28.2413C15.0774 27.7917 15.0042 27.3526 14.8787 26.9448C15.0669 26.2442 15.5897 24.6863 16.8235 23.3584C21.5182 19.6361 26.1083 7.07863 26.307 6.53492C26.3906 6.31535 26.4115 6.07486 26.3697 5.83438C26.192 4.66332 26.2547 3.23087 26.5056 2.80217C27.0598 2.81263 28.555 2.96947 29.4542 4.21372C30.5207 5.688 30.4789 8.32288 29.3287 11.8151C27.5721 17.1372 27.4258 19.9394 28.8164 21.1731C29.5065 21.79 30.4266 21.8214 31.0958 21.5809C31.7336 21.4345 32.34 21.3091 32.9151 21.215C32.9569 21.2045 33.0092 21.1941 33.051 21.1836C36.261 20.4831 42.0117 20.0544 44.0088 21.8737C45.7026 23.4212 44.5002 25.4705 44.3643 25.6901C43.9774 26.2756 44.0924 27.0389 44.6152 27.5094C44.6257 27.5199 45.7235 28.555 45.7758 29.9456C45.8176 30.8762 45.3785 31.8277 44.4688 32.7687Z"/>
</mask>
<path d="M47.1455 33.9921C48.1702 32.6851 48.6616 31.284 48.5989 29.8411C48.5362 28.2518 47.8252 27.0075 47.2397 26.2442C47.9193 24.5504 48.1807 21.8841 45.9118 19.8139C44.2493 18.2978 41.4262 17.6182 37.5157 17.8064C34.7658 17.9318 32.4655 18.4442 32.3714 18.4651H32.3609C31.8381 18.5592 31.284 18.6742 30.7194 18.7997C30.6775 18.1305 30.7926 16.468 32.0263 12.7248C33.4902 8.2706 33.4065 4.86198 31.7545 2.5826C30.0188 0.188206 27.248 0 26.4325 0C25.6483 0 24.9268 0.324132 24.4145 0.920117C23.2539 2.26892 23.3898 4.75742 23.5362 5.90757C22.156 9.60895 18.2873 18.6847 15.0146 21.2045C14.9519 21.2463 14.8996 21.2986 14.8473 21.3509C13.8854 22.3651 13.2371 23.463 12.798 24.4249C12.1811 24.0903 11.4806 23.9021 10.7277 23.9021H4.34964C1.94479 23.9021 0 25.8574 0 28.2518V45.2426C0 47.6474 1.95525 49.5922 4.34964 49.5922H10.7277C11.6583 49.5922 12.5261 49.2995 13.2371 48.7976L15.6943 49.0903C16.0707 49.1426 22.7624 49.9895 29.632 49.8536C30.8762 49.9477 32.0473 50 33.1347 50C35.0063 50 36.6374 49.8536 37.9967 49.5609C41.1962 48.8812 43.3814 47.522 44.4897 45.5249C45.3367 43.9983 45.3367 42.4822 45.2008 41.5203C47.2815 39.6382 47.6474 37.5575 47.5742 36.0937C47.5324 35.2468 47.3442 34.5253 47.1455 33.9921ZM4.34964 46.7691C3.50272 46.7691 2.82309 46.079 2.82309 45.2426V28.2413C2.82309 27.3944 3.51317 26.7148 4.34964 26.7148H10.7277C11.5747 26.7148 12.2543 27.4049 12.2543 28.2413V45.2321C12.2543 46.079 11.5642 46.7587 10.7277 46.7587H4.34964V46.7691ZM44.4688 32.7687C44.0297 33.2288 43.946 33.9293 44.2806 34.473C44.2806 34.4835 44.7093 35.2154 44.7616 36.2192C44.8348 37.5889 44.1761 38.8018 42.7959 39.8369C42.3045 40.2133 42.1058 40.8616 42.3149 41.4471C42.3149 41.4575 42.7645 42.8377 42.0326 44.1447C41.3321 45.3994 39.7742 46.2986 37.4111 46.8005C35.5186 47.2083 32.9465 47.2815 29.7888 47.0305C29.747 47.0305 29.6947 47.0305 29.6424 47.0305C22.9193 47.1769 16.123 46.2986 16.0498 46.2882H16.0393L14.9833 46.1627C15.046 45.8699 15.0774 45.5563 15.0774 45.2426V28.2413C15.0774 27.7917 15.0042 27.3526 14.8787 26.9448C15.0669 26.2442 15.5897 24.6863 16.8235 23.3584C21.5182 19.6361 26.1083 7.07863 26.307 6.53492C26.3906 6.31535 26.4115 6.07486 26.3697 5.83438C26.192 4.66332 26.2547 3.23087 26.5056 2.80217C27.0598 2.81263 28.555 2.96947 29.4542 4.21372C30.5207 5.688 30.4789 8.32288 29.3287 11.8151C27.5721 17.1372 27.4258 19.9394 28.8164 21.1731C29.5065 21.79 30.4266 21.8214 31.0958 21.5809C31.7336 21.4345 32.34 21.3091 32.9151 21.215C32.9569 21.2045 33.0092 21.1941 33.051 21.1836C36.261 20.4831 42.0117 20.0544 44.0088 21.8737C45.7026 23.4212 44.5002 25.4705 44.3643 25.6901C43.9774 26.2756 44.0924 27.0389 44.6152 27.5094C44.6257 27.5199 45.7235 28.555 45.7758 29.9456C45.8176 30.8762 45.3785 31.8277 44.4688 32.7687Z" fill="black" stroke="white" stroke-width="1.2" mask="url(#path-1-inside-1)"/>
</g>
</svg>
